<svg xmlns="http://www.w3.org/2000/svg" xmlns:xlink="http://www.w3.org/1999/xlink" width="197px" height="33px" viewBox="0 0 197 33" version="1.1">
    <!-- Generator: Sketch 53 (72520) - https://sketchapp.com -->
    <title>Group 16</title>
    <desc>Created with Sketch.</desc>
    <defs>
        <linearGradient x1="92.4832589%" y1="1.47770051%" x2="63.3816964%" y2="60.0943712%" id="linearGradient-1">
            <stop stop-color="#FFA0C5" offset="0%"/>
            <stop stop-color="#F82E69" offset="100%"/>
        </linearGradient>
        <path d="M22.807492,24.1935546 L1.20461714,24.1935546 C0.439115927,24.1935546 -0.181445414,23.5822321 -0.181445414,22.8281275 C-0.181445414,22.4659937 -0.0354142432,22.118692 0.224522908,21.8626247 L21.8273978,0.581369749 C22.3686889,0.0481373026 23.2462952,0.0481373026 23.7875863,0.581369749 C24.0475234,0.837437 24.1935546,1.18473872 24.1935546,1.5468725 L24.1935546,22.8281275 C24.1935546,23.5822321 23.5729932,24.1935546 22.807492,24.1935546 Z" id="path-2"/>
        <linearGradient x1="100%" y1="8.45278106%" x2="76.640625%" y2="41.2324104%" id="linearGradient-4">
            <stop stop-color="#B5C1FF" offset="0%"/>
            <stop stop-color="#778CFF" offset="100%"/>
        </linearGradient>
        <linearGradient x1="-65.96405%" y1="-338.825358%" x2="38.801664%" y2="124.130378%" id="linearGradient-5">
            <stop stop-color="#7B66BD" offset="0%"/>
            <stop stop-color="#261C56" offset="100%"/>
        </linearGradient>
        <path d="M20.4896358,7.75918948 L20.47635,27.8047288 C20.4748573,30.0569821 18.6592269,31.8875876 16.4070618,31.9075799 C14.1733573,31.9274084 12.3465079,30.1327073 12.3266794,27.8990028 C12.3266142,27.8916519 12.3265689,27.8843008 12.3265438,27.8769496 L12.2577399,7.78333609 L9.09757558,7.7926058 L13.0295677,3.86061373 L14.9293799,1.96080146 C15.7104285,1.17975288 16.9767585,1.17975288 17.757807,1.96080146 L19.5581533,3.76114769 L23.5472262,7.75022065 L20.4896358,7.75918948 Z" id="path-6"/>
        <linearGradient x1="50%" y1="230.027199%" x2="53.2375406%" y2="33.3456513%" id="linearGradient-8">
            <stop stop-color="#778CFF" offset="0%"/>
            <stop stop-color="#AEBBFF" offset="58.1665261%"/>
            <stop stop-color="#778CFF" offset="100%"/>
        </linearGradient>
        <path d="M14.3476119,19.8267359 L14.3419177,28.4181069 C14.3404249,30.6703603 12.5247946,32.5009657 10.2726294,32.520958 L10.2726294,32.520958 C8.03892496,32.5407865 6.21207554,30.7460854 6.19224706,28.5123809 C6.19218181,28.50503 6.1921366,28.4976789 6.19211142,28.4903277 L6.16152445,19.5576459 L14.3476119,19.8267359 Z" id="path-9"/>
        <linearGradient x1="77.5041024%" y1="93.8954934%" x2="57.3272255%" y2="31.7267546%" id="linearGradient-11">
            <stop stop-color="#000000" stop-opacity="0" offset="0%"/>
            <stop stop-color="#322564" offset="100%"/>
        </linearGradient>
    </defs>
    <g id="Page-1" stroke="none" stroke-width="1" fill="none" fill-rule="evenodd">
        <g id="Desktop-HD-Copy" transform="translate(-139.000000, -59.000000)">
            <g id="Group-16" transform="translate(136.000000, 59.000000)">
                <g id="Group-31">
                    <g id="Group-2-Copy-2">
                        <g id="Path-57" transform="translate(11.122965, 0.000000)">
                            <mask id="mask-3" fill="white">
                                <use xlink:href="#path-2"/>
                            </mask>
                            <use id="Mask" fill="url(#linearGradient-1)" transform="translate(12.006055, 12.187500) rotate(-450.000000) translate(-12.006055, -12.187500) " xlink:href="#path-2"/>
                        </g>
                        <path d="M26.3837942,32.5506974 L4.78091932,32.5506974 C4.01541811,32.5506974 3.39485677,31.9393749 3.39485677,31.1852704 C3.39485677,30.8231366 3.54088794,30.4758349 3.80082509,30.2197676 L25.4037,8.93851261 C25.9449911,8.40528016 26.8225974,8.40528016 27.3638884,8.93851261 C27.6238256,9.19457986 27.7698568,9.54188158 27.7698568,9.90401536 L27.7698568,31.1852704 C27.7698568,31.9393749 27.1492954,32.5506974 26.3837942,32.5506974 Z" id="Path-53-Copy" fill="url(#linearGradient-4)" transform="translate(15.582357, 20.544643) rotate(-450.000000) translate(-15.582357, -20.544643) "/>
                        <g id="Path-54" transform="translate(0.000000, 3.138531)">
                            <mask id="mask-7" fill="white">
                                <use xlink:href="#path-6"/>
                            </mask>
                            <use id="Mask" fill="url(#linearGradient-5)" transform="translate(16.322401, 16.641379) rotate(-315.000000) translate(-16.322401, -16.641379) " xlink:href="#path-6"/>
                            <path d="M14.1355565,18.88047 L27.7308444,5.07971882 L16.4332156,5.07971882 C11.6388981,11.9463151 6.3684425,15.4331036 0.621848956,15.5400843" id="Path-2" fill="#6293D0" opacity="0.353585379" mask="url(#mask-7)"/>
                        </g>
                        <mask id="mask-10" fill="white">
                            <use xlink:href="#path-9"/>
                        </mask>
                        <use id="Mask" fill="url(#linearGradient-8)" transform="translate(10.254568, 26.039383) rotate(-315.000000) translate(-10.254568, -26.039383) " xlink:href="#path-9"/>
                    </g>
                    <g id="Combined-Shape-Copy-4" transform="translate(4.000000, 1.000000)" fill="url(#linearGradient-11)" opacity="0.426571801">
                        <path d="M31.1950996,3.77235743e-12 C31.2702931,0.164062868 31.3119734,0.345056117 31.3119734,0.535256033 L31.3119734,21.5307376 C31.3119734,22.2747158 30.6742538,22.8778292 29.8875868,22.8778292 C29.509816,22.8778292 29.1475177,22.7359039 28.8803935,22.4832752 L23.4394439,17.3375812 L23.4394439,29.6529084 C23.4394439,30.3968866 22.8017243,31 22.0150574,31 C21.6372866,31 21.2749883,30.8580747 21.007864,30.605446 L13.1285946,23.1537486 L7.34822284,28.9522049 C5.67650399,30.6291538 2.96187233,30.6333937 1.28492334,28.9616749 C1.28334256,28.960099 1.28176302,28.9585219 1.28018471,28.9569436 C0.909631591,28.5863905 0.62081774,28.1650187 0.413760678,27.7152484 C1.40209114,27.8896335 2.55518575,27.2643547 3.87304451,25.8394119 L31.1950996,1.75148784e-12 Z" id="Combined-Shape-Copy-3"/>
                    </g>
                </g>
                <path d="M58.8136078,22.9724269 L66.1921098,22.9724269 L66.1921098,26.7890544 L55,26.7890544 L55,6.54936305 L58.8136078,6.54936305 L58.8136078,22.9724269 Z M76.8560871,12.332132 L80.4209813,12.332132 L80.4209813,26.7890544 L76.8560871,26.7890544 L76.8560871,25.169879 C76.0270419,26.4710021 74.5900303,27.1938482 72.7384961,27.1938482 C69.8092031,27.1938482 67.5155115,25.0542237 67.5155115,21.2086823 L67.5155115,12.332132 L71.0804057,12.332132 L71.0804057,20.7460608 C71.0804057,22.7122022 72.2134341,23.7241868 73.8162548,23.7241868 C75.5572496,23.7241868 76.8560871,22.6543746 76.8560871,20.1388701 L76.8560871,12.332132 Z M98.6569045,11.9273382 C101.807276,11.9273382 103.879889,14.2693596 103.879889,17.8835902 L103.879889,26.7890544 L100.314995,26.7890544 L100.314995,18.1438148 C100.314995,16.4378979 99.4859497,15.3969995 97.9936683,15.3969995 C96.4184825,15.3969995 95.4236283,16.4957256 95.4236283,18.664264 L95.4236283,26.7890544 L91.8587341,26.7890544 L91.8587341,18.1438148 C91.8587341,16.4378979 91.0296889,15.3969995 89.5374076,15.3969995 C88.0174915,15.3969995 86.9397328,16.4957256 86.9397328,18.664264 L86.9397328,26.7890544 L83.3748385,26.7890544 L83.3748385,12.332132 L86.9397328,12.332132 L86.9397328,13.8645658 C87.7135082,12.6501843 89.0123457,11.9273382 90.7809754,11.9273382 C92.4943354,11.9273382 93.765538,12.6790981 94.5393135,14.009135 C95.3959935,12.708012 96.7777354,11.9273382 98.6569045,11.9273382 Z M114.654406,11.9273382 C118.357474,11.9273382 121.397306,15.2524303 121.397306,19.5605932 C121.397306,23.868756 118.357474,27.1938482 114.654406,27.1938482 C112.637062,27.1938482 111.172416,26.4131744 110.177562,25.0831375 L110.177562,26.7890544 L106.612668,26.7890544 L106.612668,6.54936305 L110.177562,6.54936305 L110.177562,14.0380488 C111.172416,12.708012 112.637062,11.9273382 114.654406,11.9273382 Z M113.99117,23.6374453 C116.201957,23.6374453 117.832412,21.9893561 117.832412,19.5605932 C117.832412,17.1318302 116.201957,15.4837411 113.99117,15.4837411 C111.808017,15.4837411 110.177562,17.1318302 110.177562,19.5605932 C110.177562,21.9893561 111.808017,23.6374453 113.99117,23.6374453 Z M126.61722,21.0930269 C127.114648,23.0013407 128.634564,23.8109283 130.513733,23.8109283 C131.895475,23.8109283 133.000868,23.2037376 133.608835,22.3652361 L136.482858,24.1000668 C135.184021,26.0662082 133.111408,27.1938482 130.458463,27.1938482 C125.81581,27.1938482 122.886517,23.868756 122.886517,19.5605932 C122.886517,15.2524303 125.843445,11.9273382 130.182115,11.9273382 C134.272071,11.9273382 137.173729,15.310258 137.173729,19.5605932 C137.173729,20.1099562 137.118459,20.6014916 137.035555,21.0930269 L126.61722,21.0930269 Z M126.561951,18.2016425 L133.608835,18.2016425 C133.166677,16.1198457 131.674396,15.2813442 130.182115,15.2813442 C128.275311,15.2813442 126.976473,16.3511564 126.561951,18.2016425 Z M142.918705,14.8187226 C143.637211,12.8525812 145.378206,12.0429935 147.1192,12.0429935 L147.1192,16.2065872 C145.267666,15.9752764 142.918705,16.8426918 142.918705,19.8786455 L142.918705,26.7890544 L139.353811,26.7890544 L139.353811,12.332132 L142.918705,12.332132 L142.918705,14.8187226 Z M151.150816,10.5973013 C149.934883,10.5973013 148.940029,9.5564029 148.940029,8.31310758 C148.940029,7.06981225 149.934883,6 151.150816,6 C152.339114,6 153.333969,7.06981225 153.333969,8.31310758 C153.333969,9.5564029 152.339114,10.5973013 151.150816,10.5973013 Z M149.354552,27.0781928 L149.354552,12.332132 L152.919446,12.332132 L152.919446,27.0781928 C152.919446,31.328528 150.985007,33.2368417 146.895051,32.9766171 L146.895051,29.3913004 C148.580776,29.5069558 149.354552,28.8419373 149.354552,27.0781928 Z M166.374542,12.332132 L169.939436,12.332132 L169.939436,26.7890544 L166.374542,26.7890544 L166.374542,25.0831375 C165.379688,26.3842605 163.887407,27.1938482 161.870063,27.1938482 C158.19463,27.1938482 155.154797,23.868756 155.154797,19.5605932 C155.154797,15.2524303 158.19463,11.9273382 161.870063,11.9273382 C163.887407,11.9273382 165.379688,12.7369258 166.374542,14.0380488 L166.374542,12.332132 Z M162.533299,23.6374453 C164.744087,23.6374453 166.374542,21.9893561 166.374542,19.5605932 C166.374542,17.1318302 164.744087,15.4837411 162.533299,15.4837411 C160.350147,15.4837411 158.719692,17.1318302 158.719692,19.5605932 C158.719692,21.9893561 160.350147,23.6374453 162.533299,23.6374453 Z M179.44275,27.1938482 C175.242255,27.1938482 172.147153,23.868756 172.147153,19.5605932 C172.147153,15.2524303 175.242255,11.9273382 179.44275,11.9273382 C182.150965,11.9273382 184.499926,13.4308581 185.632954,15.6572241 L182.565487,17.536624 C182.01279,16.3511564 180.824492,15.5993964 179.415116,15.5993964 C177.287233,15.5993964 175.712047,17.2474856 175.712047,19.5605932 C175.712047,21.8447869 177.287233,23.4928761 179.415116,23.4928761 C180.852127,23.4928761 182.040425,22.7700299 182.593122,21.5845623 L185.688224,23.4350484 C184.499926,25.6903283 182.150965,27.1938482 179.44275,27.1938482 Z M200,26.7890544 L195.854774,26.7890544 L190.825233,20.2256116 L190.825233,26.7890544 L187.260339,26.7890544 L187.260339,6.54936305 L190.825233,6.54936305 L190.825233,18.6931778 L195.578426,12.332132 L199.834191,12.332132 L194.279588,19.4738516 L200,26.7890544 Z" id="Lumberjack" fill="#312560" fill-rule="nonzero"/>
            </g>
        </g>
    </g>
</svg>
